<?xml version="1.0" encoding="utf-8"?>
<svg viewBox="0 0 500 500" xmlns="http://www.w3.org/2000/svg">
  <path d="M 323.007 448.796 L 211.977 448.796 C 209.29 448.793 207.112 446.616 207.109 443.929 L 207.109 366.302 C 207.112 363.615 209.29 361.436 211.977 361.433 L 323.007 361.433 C 325.694 361.436 327.871 363.615 327.876 366.302 L 327.876 443.929 C 327.871 446.616 325.694 448.793 323.007 448.796 Z" style="" fill="#f2f2f2" transform="matrix(0.9999999999999999, 0, 0, 0.9999999999999999, -2.842170943040401e-14, 0)"/>
  <path d="M 102.093 427.047 C 100.047 427.14 98.666 424.983 99.607 423.164 C 99.75 422.89 99.938 422.641 100.165 422.433 C 100.232 422.166 100.28 421.974 100.346 421.708 C 100.323 421.65 100.299 421.592 100.274 421.533 C 98.13 416.467 91.303 415.622 87.988 420.013 C 87.624 420.496 87.321 421.023 87.089 421.582 C 84.933 426.776 82.188 431.979 81.512 437.471 C 81.215 439.898 81.339 442.358 81.883 444.742 C 76.817 433.695 74.188 421.686 74.171 409.532 C 74.17 406.482 74.338 403.435 74.678 400.404 C 74.958 397.918 75.347 395.452 75.845 393.002 C 78.56 379.712 84.388 367.256 92.852 356.656 C 96.949 354.42 100.261 350.983 102.343 346.808 C 103.099 345.307 103.633 343.703 103.928 342.05 C 103.465 342.11 102.996 342.149 102.532 342.178 C 102.39 342.186 102.239 342.193 102.094 342.202 L 102.04 342.203 C 100.012 342.295 98.646 340.156 99.58 338.355 C 99.663 338.196 99.762 338.046 99.874 337.908 C 100.074 337.661 100.274 337.417 100.473 337.171 C 100.776 336.792 101.087 336.422 101.39 336.042 C 101.425 336.007 101.457 335.969 101.487 335.929 C 101.837 335.498 102.185 335.073 102.532 334.641 C 101.897 333.654 101.041 332.826 100.034 332.224 C 96.541 330.18 91.723 331.595 89.201 334.755 C 86.67 337.914 86.193 342.345 87.072 346.292 C 87.936 349.651 89.366 352.837 91.299 355.717 C 91.109 355.959 90.912 356.193 90.723 356.435 C 87.262 360.887 84.245 365.667 81.714 370.708 C 82.33 365.061 81.596 359.349 79.572 354.042 C 77.522 349.097 73.679 344.93 70.295 340.652 C 66.229 335.518 57.893 337.758 57.177 344.269 C 57.17 344.333 57.163 344.397 57.156 344.458 C 57.66 344.742 58.151 345.043 58.633 345.362 C 60.944 346.906 60.716 350.373 58.224 351.601 C 57.894 351.765 57.541 351.876 57.178 351.932 L 57.104 351.943 C 57.283 353.755 57.599 355.551 58.05 357.314 C 60.694 367.269 67.368 375.67 76.466 380.495 C 76.762 380.646 77.05 380.798 77.345 380.942 C 74.804 388.145 73.21 395.647 72.603 403.26 C 72.259 407.751 72.279 412.263 72.662 416.752 L 72.642 416.592 C 71.671 411.601 69.009 407.098 65.103 403.843 C 59.302 399.078 51.108 397.323 44.85 393.493 C 42.166 391.77 38.622 393.599 38.473 396.784 C 38.46 397.032 38.471 397.279 38.503 397.524 C 38.512 397.581 38.519 397.636 38.529 397.691 C 39.462 398.071 40.369 398.509 41.248 399.002 C 41.751 399.285 42.242 399.587 42.725 399.904 C 45.036 401.449 44.808 404.915 42.316 406.145 C 41.986 406.307 41.632 406.419 41.268 406.475 L 41.196 406.486 C 41.142 406.494 41.097 406.502 41.044 406.51 C 42.638 410.315 44.875 413.818 47.657 416.865 C 54.604 424.319 64.315 428.579 74.505 428.644 L 74.511 428.644 C 75.88 434.592 77.863 440.38 80.428 445.916 L 101.563 445.916 C 101.639 445.682 101.708 445.44 101.776 445.204 C 99.82 445.328 97.855 445.21 95.928 444.856 C 97.496 442.931 99.064 440.993 100.632 439.068 C 100.667 439.033 100.7 438.995 100.731 438.955 C 101.526 437.97 102.328 436.993 103.125 436.009 L 103.125 436.007 C 103.168 432.987 102.82 429.977 102.094 427.047 L 102.093 427.047 Z" style="" fill="#f2f2f2" transform="matrix(0.9999999999999999, 0, 0, 0.9999999999999999, -2.842170943040401e-14, 0)"/>
  <path d="M 413.692 427.047 C 411.645 427.14 410.264 424.983 411.205 423.164 C 411.348 422.89 411.536 422.641 411.763 422.433 C 411.83 422.166 411.879 421.974 411.945 421.708 C 411.921 421.65 411.898 421.592 411.873 421.533 C 409.728 416.467 402.902 415.622 399.587 420.013 C 399.222 420.496 398.919 421.023 398.688 421.582 C 396.532 426.776 393.786 431.979 393.11 437.471 C 392.813 439.898 392.938 442.358 393.482 444.742 C 388.417 433.695 385.786 421.686 385.769 409.532 C 385.768 406.482 385.938 403.435 386.277 400.404 C 386.557 397.918 386.946 395.452 387.444 393.002 C 390.159 379.712 395.987 367.256 404.45 356.656 C 408.547 354.42 411.86 350.983 413.943 346.808 C 414.698 345.307 415.231 343.703 415.526 342.05 C 415.063 342.11 414.594 342.149 414.131 342.178 C 413.988 342.186 413.837 342.193 413.692 342.202 L 413.638 342.203 C 411.611 342.295 410.245 340.156 411.178 338.355 C 411.262 338.196 411.36 338.046 411.472 337.908 C 411.672 337.661 411.872 337.417 412.071 337.171 C 412.375 336.792 412.685 336.422 412.987 336.042 C 413.023 336.007 413.056 335.969 413.086 335.929 C 413.435 335.498 413.783 335.073 414.131 334.641 C 413.495 333.654 412.639 332.826 411.632 332.224 C 408.14 330.18 403.321 331.595 400.8 334.755 C 398.269 337.914 397.791 342.345 398.67 346.292 C 399.534 349.651 400.964 352.837 402.897 355.717 C 402.707 355.959 402.51 356.193 402.321 356.435 C 398.86 360.887 395.843 365.667 393.312 370.708 C 393.928 365.061 393.194 359.349 391.17 354.042 C 389.121 349.097 385.277 344.93 381.893 340.652 C 377.827 335.518 369.491 337.758 368.775 344.269 C 368.768 344.333 368.762 344.397 368.755 344.458 C 369.258 344.742 369.75 345.043 370.23 345.362 C 372.543 346.906 372.314 350.373 369.823 351.601 C 369.492 351.765 369.139 351.876 368.775 351.932 L 368.702 351.943 C 368.882 353.755 369.197 355.551 369.648 357.314 C 372.292 367.269 378.966 375.67 388.064 380.495 C 388.36 380.646 388.649 380.798 388.943 380.942 C 386.402 388.145 384.808 395.647 384.201 403.26 C 383.858 407.751 383.878 412.263 384.262 416.752 L 384.24 416.592 C 383.27 411.601 380.607 407.098 376.701 403.843 C 370.902 399.078 362.706 397.323 356.448 393.493 C 353.765 391.77 350.22 393.599 350.071 396.784 C 350.059 397.032 350.069 397.279 350.101 397.524 C 350.11 397.581 350.119 397.636 350.127 397.691 C 351.06 398.071 351.967 398.509 352.847 399.002 C 353.35 399.285 353.841 399.587 354.323 399.904 C 356.634 401.449 356.407 404.915 353.914 406.145 C 353.584 406.307 353.231 406.419 352.868 406.475 L 352.794 406.486 C 352.74 406.494 352.695 406.502 352.643 406.51 C 354.237 410.315 356.474 413.818 359.255 416.865 C 366.203 424.319 375.914 428.579 386.103 428.644 L 386.111 428.644 C 387.479 434.592 389.462 440.38 392.026 445.916 L 413.161 445.916 C 413.238 445.682 413.306 445.44 413.374 445.204 C 411.418 445.328 409.454 445.21 407.526 444.856 C 409.094 442.931 410.662 440.993 412.231 439.068 C 412.265 439.033 412.298 438.995 412.329 438.955 C 413.125 437.97 413.927 436.993 414.724 436.009 L 414.724 436.007 C 414.766 432.987 414.418 429.977 413.692 427.047 Z" style="" fill="#f2f2f2" transform="matrix(0.9999999999999999, 0, 0, 0.9999999999999999, -2.842170943040401e-14, 0)"/>
  <path d="M 332.302 445.778 C 332.24 445.778 332.181 445.777 332.119 445.776 C 328.906 445.592 326.407 442.912 326.446 439.696 C 326.446 430.27 319.713 424.772 313.04 423.503 C 306.368 422.237 298.089 424.882 294.633 433.652 L 291.491 441.541 C 285.835 447.183 276.678 447.183 271.023 441.541 L 270.836 441.355 L 270.951 441.117 L 326.446 327.575 L 326.446 324.794 C 326.369 323.936 326.37 323.072 326.447 322.215 L 326.446 36.249 C 326.446 32.947 329.177 30.297 332.48 30.399 C 335.692 30.582 338.192 33.261 338.152 36.479 L 338.152 322.248 C 338.23 323.106 338.229 323.969 338.151 324.827 L 338.152 327.575 L 393.763 441.354 L 393.577 441.539 C 387.921 447.183 378.763 447.183 373.108 441.539 L 373.026 441.414 L 369.967 433.652 C 366.51 424.882 358.231 422.239 351.559 423.503 C 344.886 424.772 338.152 430.27 338.152 439.696 L 338.152 439.925 C 338.152 443.156 335.534 445.778 332.302 445.778 Z" style="" fill="#e6e6e6" transform="matrix(0.9999999999999999, 0, 0, 0.9999999999999999, -2.842170943040401e-14, 0)"/>
  <path d="M 433.884 237.38 L 230.716 237.38 C 225.799 237.376 221.813 233.391 221.808 228.474 L 221.808 86.428 C 221.813 81.511 225.799 77.527 230.716 77.52 L 433.884 77.52 C 438.801 77.527 442.785 81.511 442.79 86.428 L 442.79 228.474 C 442.785 233.391 438.801 237.375 433.884 237.38 Z" style="stroke-dashoffset: -18px;" fill="#fff" transform="matrix(0.9999999999999999, 0, 0, 0.9999999999999999, -2.842170943040401e-14, 0)"/>
  <path d="M 433.884 238.486 L 230.716 238.486 C 225.189 238.48 220.71 234.001 220.702 228.474 L 220.702 86.428 C 220.71 80.901 225.189 76.422 230.716 76.416 L 433.884 76.416 C 439.41 76.422 443.89 80.901 443.896 86.428 L 443.896 228.474 C 443.89 234 439.41 238.48 433.884 238.486 Z M 230.716 78.626 C 226.408 78.631 222.918 82.122 222.912 86.428 L 222.912 228.474 C 222.918 232.781 226.408 236.272 230.716 236.276 L 433.884 236.276 C 438.19 236.272 441.681 232.781 441.686 228.474 L 441.686 86.428 C 441.681 82.122 438.19 78.631 433.884 78.626 L 230.716 78.626 Z" style="" fill="#f2f2f2" transform="matrix(0.9999999999999999, 0, 0, 0.9999999999999999, -2.842170943040401e-14, 0)"/>
  <path d="M 362.338 86.402 L 302.26 86.402 C 294.33 86.392 287.902 79.966 287.894 72.036 L 287.894 71.774 L 376.705 71.774 L 376.705 72.036 C 376.696 79.966 370.269 86.392 362.338 86.402 Z" style="" fill="#e6e6e6" transform="matrix(0.9999999999999999, 0, 0, 0.9999999999999999, -2.842170943040401e-14, 0)"/>
  <path d="M 362.6 246.262 L 302.521 246.262 C 294.592 246.252 288.164 239.827 288.155 231.896 L 288.155 231.635 L 376.966 231.635 L 376.966 231.896 C 376.957 239.827 370.531 246.252 362.6 246.262 Z" style="" fill="#e6e6e6" transform="matrix(0.9999999999999999, 0, 0, 0.9999999999999999, -2.842170943040401e-14, 0)"/>
  <path d="M 443.129 446.51 C 443.131 446.995 442.738 447.389 442.253 447.387 L 39.097 447.387 C 38.422 447.387 38.001 446.656 38.339 446.072 C 38.494 445.8 38.785 445.634 39.097 445.634 L 442.253 445.634 C 442.738 445.633 443.131 446.025 443.129 446.51 Z" style="" fill="#ccc" transform="matrix(0.9999999999999999, 0, 0, 0.9999999999999999, -2.842170943040401e-14, 0)"/>
</svg>