<?xml version="1.0" encoding="utf-8"?>
<svg viewBox="0 0 500 500" xmlns="http://www.w3.org/2000/svg">
  <path d="M 303.464 292.072 C 294.974 292.066 289.675 282.872 293.924 275.522 C 295.894 272.116 299.53 270.017 303.464 270.014 L 467.286 270.014 C 465.607 266.933 462.38 265.015 458.872 265.012 L 133.238 265.012 C 124.392 265.022 117.226 272.197 117.227 281.043 C 117.232 289.887 124.394 297.058 133.238 297.074 L 458.872 297.074 C 462.38 297.072 465.607 295.153 467.286 292.072 L 303.464 292.072 Z" fill="#ccc" style=""/>
  <path d="M 467.503 276.091 L 311.747 276.091 C 311.054 276.089 310.623 275.338 310.971 274.739 C 311.131 274.462 311.427 274.291 311.747 274.29 L 467.503 274.29 C 468.196 274.293 468.628 275.044 468.28 275.642 C 468.119 275.92 467.823 276.09 467.503 276.091 Z" fill="#ccc" style=""/>
  <path d="M 467.503 281.943 L 311.747 281.943 C 311.054 281.943 310.621 281.193 310.968 280.593 C 311.129 280.314 311.426 280.143 311.747 280.143 L 467.503 280.143 C 468.196 280.143 468.629 280.893 468.283 281.493 C 468.122 281.772 467.825 281.943 467.503 281.943 Z" fill="#ccc" style=""/>
  <path d="M 467.503 287.795 L 311.747 287.795 C 311.054 287.793 310.623 287.043 310.971 286.443 C 311.131 286.167 311.427 285.996 311.747 285.994 L 467.503 285.994 C 468.196 285.997 468.628 286.748 468.28 287.348 C 468.119 287.624 467.823 287.794 467.503 287.795 Z" fill="#ccc" style=""/>
  <path d="M 261.15 261.011 C 252.659 261.005 247.359 251.811 251.609 244.461 C 253.579 241.055 257.214 238.955 261.15 238.953 L 424.97 238.953 C 423.292 235.872 420.065 233.953 416.557 233.951 L 90.924 233.951 C 82.077 233.961 74.911 241.136 74.912 249.982 C 74.917 258.827 82.079 265.998 90.924 266.013 L 416.557 266.013 C 420.065 266.01 423.292 264.092 424.97 261.011 L 261.15 261.011 Z" fill="#130958" style=""/>
  <path d="M 425.189 245.031 L 269.432 245.031 C 268.739 245.028 268.307 244.277 268.655 243.677 C 268.817 243.401 269.112 243.231 269.432 243.23 L 425.189 243.23 C 425.881 243.23 426.314 243.98 425.968 244.58 C 425.807 244.858 425.51 245.031 425.189 245.031 Z" fill="#ccc" style=""/>
  <path d="M 425.189 250.882 L 269.432 250.882 C 268.739 250.882 268.306 250.132 268.653 249.531 C 268.813 249.253 269.11 249.081 269.432 249.081 L 425.189 249.081 C 425.881 249.081 426.314 249.832 425.968 250.432 C 425.807 250.711 425.51 250.882 425.189 250.882 Z" fill="#ccc" style=""/>
  <path d="M 425.189 256.734 L 269.432 256.734 C 268.739 256.733 268.307 255.981 268.655 255.383 C 268.817 255.105 269.112 254.935 269.432 254.934 L 425.189 254.934 C 425.881 254.932 426.317 255.682 425.971 256.283 C 425.81 256.562 425.511 256.735 425.189 256.734 Z" fill="#ccc" style=""/>
  <path d="M 218.834 228.913 C 210.344 228.908 205.044 219.713 209.294 212.363 C 211.263 208.957 214.9 206.858 218.834 206.855 L 382.655 206.855 C 380.977 203.775 377.75 201.855 374.241 201.853 L 48.608 201.853 C 39.761 201.863 32.595 209.037 32.597 217.884 C 32.601 226.728 39.764 233.9 48.608 233.915 L 374.241 233.915 C 377.75 233.913 380.977 231.995 382.655 228.913 L 218.834 228.913 Z" fill="#ccc" style=""/>
  <path d="M 382.873 212.932 L 227.117 212.932 C 226.425 212.93 225.993 212.18 226.341 211.58 C 226.501 211.304 226.796 211.133 227.117 211.132 L 382.873 211.132 C 383.565 211.132 383.999 211.883 383.653 212.483 C 383.492 212.761 383.195 212.932 382.873 212.932 Z" fill="#ccc" style=""/>
  <path d="M 382.873 218.785 L 227.117 218.785 C 226.425 218.785 225.99 218.034 226.337 217.434 C 226.498 217.155 226.795 216.984 227.117 216.984 L 382.873 216.984 C 383.565 216.984 383.999 217.734 383.653 218.334 C 383.492 218.613 383.195 218.785 382.873 218.785 Z" fill="#ccc" style=""/>
  <path d="M 382.873 224.637 L 227.117 224.637 C 226.425 224.637 225.99 223.887 226.337 223.287 C 226.498 223.008 226.795 222.836 227.117 222.836 L 382.873 222.836 C 383.565 222.836 383.999 223.587 383.653 224.187 C 383.492 224.465 383.195 224.637 382.873 224.637 Z" fill="#ccc" style=""/>
</svg>